<svg xmlns="http://www.w3.org/2000/svg" xmlns:svg="http://www.w3.org/2000/svg" id="svg1720" width="1076" height="86.667" preserveAspectRatio="xMidYMid meet" version="1.0" viewBox="0 0 807 65"><metadata id="metadata1678">Created by potrace 1.16, written by Peter Selinger 2001-2019</metadata><g id="g1718" fill="#000" stroke="none" transform="translate(0.000000,65.000000) scale(0.100000,-0.100000)" style="fill:#faa;fill-opacity:1;stroke-width:20.8346457;stroke-miterlimit:4;stroke-dasharray:none;stroke:#f70303;stroke-opacity:1"><path id="path1680" d="M226 640 c-74 -23 -130 -124 -151 -271 -6 -45 -7 -47 -38 -45 -26 1 -33 -3 -35 -22 -3 -19 1 -22 31 -22 l34 0 7 -93 c8 -123 21 -167 48 -167 17 0 19 4 14 33 -3 17 -9 76 -12 131 l-7 98 29 -5 c16 -3 81 -9 145 -12 l117 -7 7 -89 c3 -49 4 -97 1 -106 -8 -25 9 -47 28 -40 13 5 16 25 16 122 l0 115 35 0 c28 0 35 4 35 20 0 16 -7 20 -38 20 l-38 0 -12 93 c-14 105 -56 204 -98 232 -32 21 -80 27 -118 15z m85 -50 c38 -21 68 -100 93 -247 l5 -33 -68 0 c-37 0 -102 3 -144 6 -89 8 -89 8 -61 118 34 134 102 194 175 156z" style="fill:#faa;fill-opacity:1;stroke-width:20.8346457;stroke-miterlimit:4;stroke-dasharray:none;stroke:#f70303;stroke-opacity:1"/><path id="path1682" d="M1506 638 c-8 -23 -26 -266 -26 -344 0 -136 29 -147 131 -49 37 36 76 65 87 65 45 0 102 -72 102 -128 0 -115 -205 -155 -276 -53 -30 43 -66 19 -39 -27 58 -97 228 -109 315 -22 59 59 60 143 3 219 -59 77 -130 74 -219 -11 -29 -27 -55 -45 -58 -39 -4 6 -2 79 5 163 17 231 17 232 -4 236 -9 2 -19 -2 -21 -10z" style="fill:#faa;fill-opacity:1;stroke-width:20.8346457;stroke-miterlimit:4;stroke-dasharray:none;stroke:#f70303;stroke-opacity:1"/><path id="path1684" d="M2527 505 c5 -131 4 -145 -10 -145 -10 0 -17 -8 -17 -20 0 -11 7 -20 15 -20 13 0 15 -23 15 -144 l0 -144 143 -7 c184 -9 241 -5 245 16 4 24 -26 29 -195 29 l-153 0 0 126 0 125 128 -3 c121 -3 127 -2 127 17 0 19 -8 20 -127 23 l-128 3 0 124 0 125 167 2 c151 3 168 5 171 21 3 16 -11 17 -192 17 l-196 0 7 -145z" style="fill:#faa;fill-opacity:1;stroke-width:20.8346457;stroke-miterlimit:4;stroke-dasharray:none;stroke:#f70303;stroke-opacity:1"/><path id="path1686" d="M4695 640 c-3 -5 1 -23 10 -39 9 -19 15 -57 15 -105 l0 -75 -92 -3 c-79 -3 -93 -6 -96 -20 -3 -16 6 -18 88 -18 l91 0 -8 -52 c-4 -29 -8 -96 -8 -148 0 -103 20 -160 57 -160 22 0 23 17 1 61 -18 36 -20 148 -6 244 l8 50 73 3 c64 3 72 5 72 22 0 18 -7 20 -68 20 l-68 0 1 78 c0 91 -18 152 -45 152 -10 0 -22 -4 -25 -10z" style="fill:#faa;fill-opacity:1;stroke-width:20.8346457;stroke-miterlimit:4;stroke-dasharray:none;stroke:#f70303;stroke-opacity:1"/><path id="path1688" d="M5214 621 c-51 -31 -74 -68 -74 -120 0 -78 45 -128 145 -162 85 -30 146 -125 130 -201 -19 -87 -214 -93 -232 -8 -4 20 -12 30 -24 30 -26 0 -30 -12 -18 -54 27 -96 213 -115 289 -30 24 28 30 44 30 82 0 114 -38 168 -155 223 -44 20 -87 45 -96 55 -54 63 -14 145 77 159 51 8 106 -15 122 -50 14 -30 52 -34 52 -6 0 25 -35 68 -70 86 -42 22 -138 19 -176 -4z" style="fill:#faa;fill-opacity:1;stroke-width:20.8346457;stroke-miterlimit:4;stroke-dasharray:none;stroke:#f70303;stroke-opacity:1"/><path id="path1690" d="M740 469 c-42 -19 -47 -19 -72 -5 -14 9 -47 16 -72 16 -39 0 -46 -3 -46 -20 0 -16 7 -20 38 -20 47 0 58 -7 77 -53 11 -26 15 -72 15 -170 0 -162 6 -197 31 -197 18 0 19 10 19 148 -1 81 -5 166 -9 190 -8 43 -8 43 30 62 51 26 110 26 134 0 10 -11 27 -20 37 -20 31 0 18 41 -21 67 -43 29 -100 30 -161 2z" style="fill:#faa;fill-opacity:1;stroke-width:20.8346457;stroke-miterlimit:4;stroke-dasharray:none;stroke:#f70303;stroke-opacity:1"/><path id="path1692" d="M4306 476 c-21 -8 -43 -19 -48 -24 -7 -7 -18 -4 -32 9 -28 26 -119 24 -124 -3 -3 -14 4 -18 31 -18 89 0 100 -27 105 -247 4 -164 5 -173 24 -173 19 0 19 7 17 192 l-2 193 29 17 c40 25 105 23 138 -3 25 -20 56 -20 56 -1 0 4 -13 21 -30 37 -35 34 -105 43 -164 21z" style="fill:#faa;fill-opacity:1;stroke-width:20.8346457;stroke-miterlimit:4;stroke-dasharray:none;stroke:#f70303;stroke-opacity:1"/><path id="path1694" d="M6080 469 c-42 -19 -47 -19 -72 -5 -14 9 -47 16 -72 16 -39 0 -46 -3 -46 -20 0 -16 7 -20 36 -20 79 0 94 -34 94 -220 0 -160 7 -200 31 -200 18 0 19 10 19 148 -1 81 -5 166 -9 190 -8 43 -8 43 30 62 51 26 110 26 134 0 10 -11 27 -20 37 -20 31 0 18 41 -21 67 -43 29 -100 30 -161 2z" style="fill:#faa;fill-opacity:1;stroke-width:20.8346457;stroke-miterlimit:4;stroke-dasharray:none;stroke:#f70303;stroke-opacity:1"/><path id="path1696" d="M978 459 c-10 -5 -18 -19 -18 -31 0 -17 4 -19 28 -14 53 13 57 12 60 -16 2 -15 -6 -58 -17 -96 -40 -132 -18 -216 69 -260 50 -26 116 -25 169 1 25 13 30 12 55 -10 37 -31 116 -34 116 -3 0 16 -7 20 -31 20 -81 0 -96 46 -79 251 12 147 10 169 -14 169 -20 0 -25 -30 -32 -207 l-7 -162 -39 -16 c-57 -23 -101 -19 -137 11 -47 39 -57 91 -33 173 11 36 22 81 26 99 6 34 -8 82 -27 94 -17 11 -69 9 -89 -3z" style="fill:#faa;fill-opacity:1;stroke-width:20.8346457;stroke-miterlimit:4;stroke-dasharray:none;stroke:#f70303;stroke-opacity:1"/><path id="path1698" d="M1864 459 c-13 -21 16 -32 83 -30 112 3 169 -35 188 -126 l7 -33 -84 0 c-91 0 -158 -22 -177 -58 -6 -12 -11 -39 -11 -60 0 -87 133 -147 241 -108 32 11 39 10 59 -6 24 -19 56 -23 79 -9 23 15 5 41 -28 41 -37 0 -41 14 -41 155 0 95 -3 117 -22 155 -34 66 -86 90 -200 90 -52 0 -90 -4 -94 -11z m276 -293 c0 -63 -1 -64 -31 -75 -77 -27 -175 0 -193 53 -8 20 -6 30 6 42 25 25 89 43 156 44 l62 0 0 -64z" style="fill:#faa;fill-opacity:1;stroke-width:20.8346457;stroke-miterlimit:4;stroke-dasharray:none;stroke:#f70303;stroke-opacity:1"/><path id="path1700" d="M3016 448 c-25 -22 -31 -40 -28 -86 1 -14 34 -53 86 -104 47 -45 90 -94 97 -110 11 -26 9 -32 -10 -51 -17 -18 -33 -22 -80 -22 -63 0 -101 21 -101 55 0 39 60 51 74 15 8 -22 46 -19 46 3 0 30 -46 66 -85 66 -51 0 -80 -32 -79 -86 3 -80 97 -127 200 -98 54 15 84 50 84 97 0 51 -22 84 -104 158 -87 77 -99 100 -66 127 28 23 62 16 112 -23 40 -31 53 -35 63 -19 11 18 -23 58 -65 80 -53 27 -112 26 -144 -2z" style="fill:#faa;fill-opacity:1;stroke-width:20.8346457;stroke-miterlimit:4;stroke-dasharray:none;stroke:#f70303;stroke-opacity:1"/><path id="path1702" d="M3371 454 c-121 -52 -149 -293 -45 -384 64 -55 167 -63 236 -17 21 15 34 32 36 50 4 35 -12 34 -55 -3 -65 -57 -174 -32 -215 50 -40 79 -11 222 51 254 54 28 151 14 172 -25 11 -21 34 -25 45 -8 12 19 -18 58 -61 79 -48 23 -116 25 -164 4z" style="fill:#faa;fill-opacity:1;stroke-width:20.8346457;stroke-miterlimit:4;stroke-dasharray:none;stroke:#f70303;stroke-opacity:1"/><path id="path1704" d="M3770 459 c-66 -27 -130 -129 -130 -205 0 -172 167 -274 327 -200 146 68 148 291 4 386 -41 27 -158 38 -201 19z m130 -40 c21 -6 51 -23 66 -36 23 -19 24 -21 4 -9 -35 22 -57 20 -87 -10 l-25 -25 -27 25 c-36 34 -64 33 -95 -4 -53 -64 -41 -136 36 -211 80 -78 80 -78 143 -23 31 26 65 60 77 76 22 32 26 93 8 127 -6 12 -8 21 -5 21 13 0 35 -72 35 -115 0 -79 -43 -134 -122 -156 -80 -21 -165 18 -204 92 -18 36 -18 122 0 157 29 55 90 98 145 101 7 1 31 -4 51 -10z" style="fill:#faa;fill-opacity:1;stroke-width:20.8346457;stroke-miterlimit:4;stroke-dasharray:none;stroke:#f70303;stroke-opacity:1"/><path id="path1706" d="M5628 450 c-99 -53 -158 -219 -112 -315 41 -87 190 -129 321 -90 58 17 83 39 65 57 -9 9 -24 8 -59 -4 -102 -35 -174 -29 -245 17 -70 47 -73 144 -7 235 48 66 109 86 169 55 38 -20 40 -55 3 -89 -25 -24 -115 -53 -178 -58 -22 -2 -30 -8 -30 -23 0 -18 6 -20 54 -18 199 9 302 152 168 233 -41 25 -101 25 -149 0z" style="fill:#faa;fill-opacity:1;stroke-width:20.8346457;stroke-miterlimit:4;stroke-dasharray:none;stroke:#f70303;stroke-opacity:1"/><path id="path1708" d="M6323 458 c-13 -6 -23 -20 -23 -30 0 -17 5 -19 40 -13 54 9 57 -2 35 -132 -24 -149 -6 -221 62 -249 50 -21 105 -10 147 30 44 41 53 88 35 186 -7 41 -13 98 -14 125 0 53 -1 53 58 39 22 -5 27 -3 27 11 0 40 -82 61 -114 29 -26 -26 -29 -61 -12 -147 25 -127 22 -173 -13 -208 -21 -21 -39 -29 -64 -29 -71 0 -90 67 -63 226 8 51 12 102 9 115 -13 54 -57 73 -110 47z" style="fill:#faa;fill-opacity:1;stroke-width:20.8346457;stroke-miterlimit:4;stroke-dasharray:none;stroke:#f70303;stroke-opacity:1"/><path id="path1710" d="M6844 317 l8 -153 -41 4 c-52 5 -91 -30 -91 -82 0 -51 36 -73 90 -57 82 25 98 83 79 297 -12 132 -14 144 -32 144 -19 0 -19 -6 -13 -153z" style="fill:#faa;fill-opacity:1;stroke-width:20.8346457;stroke-miterlimit:4;stroke-dasharray:none;stroke:#f70303;stroke-opacity:1"/><path id="path1712" d="M7075 456 c-70 -31 -108 -106 -108 -213 1 -152 91 -238 229 -217 72 11 144 83 99 100 -9 4 -25 -4 -39 -19 -29 -31 -63 -41 -117 -34 -55 7 -87 31 -110 80 -37 82 -15 197 46 245 48 38 128 29 183 -21 30 -28 51 -10 34 28 -24 53 -147 82 -217 51z" style="fill:#faa;fill-opacity:1;stroke-width:20.8346457;stroke-miterlimit:4;stroke-dasharray:none;stroke:#f70303;stroke-opacity:1"/><path id="path1714" d="M7485 456 c-42 -18 -83 -62 -113 -121 -20 -39 -26 -65 -27 -117 0 -79 16 -107 90 -153 45 -28 55 -30 144 -30 107 0 171 21 171 56 0 21 -21 25 -50 9 -41 -22 -124 -31 -180 -19 -63 13 -130 70 -130 110 0 22 4 24 55 26 130 3 235 66 235 141 0 46 -19 74 -64 96 -41 19 -90 20 -131 2z m129 -57 c14 -11 26 -28 26 -38 0 -23 -36 -56 -83 -76 -40 -16 -167 -36 -167 -26 0 3 13 31 28 61 47 92 134 128 196 79z" style="fill:#faa;fill-opacity:1;stroke-width:20.8346457;stroke-miterlimit:4;stroke-dasharray:none;stroke:#f70303;stroke-opacity:1"/><path id="path1716" d="M7873 458 c-28 -14 -47 -60 -38 -95 4 -16 44 -64 96 -114 73 -71 89 -92 89 -117 0 -40 -21 -55 -83 -60 -42 -3 -57 0 -79 18 -34 26 -37 66 -7 75 14 5 28 0 43 -14 30 -28 58 -28 54 1 -3 25 -61 68 -90 68 -11 0 -33 -13 -49 -29 -84 -85 39 -202 171 -162 54 16 80 41 86 82 9 54 -17 98 -107 179 -87 79 -101 112 -54 130 30 11 65 0 112 -36 38 -29 53 -30 53 -6 0 63 -126 114 -197 80z" style="fill:#faa;fill-opacity:1;stroke-width:20.8346457;stroke-miterlimit:4;stroke-dasharray:none;stroke:#f70303;stroke-opacity:1"/></g></svg>